<?xml version="1.0" ?><svg id="Layer_1" style="enable-background:new 0 0 100 100;" version="1.1" viewBox="0 0 100 100" xml:space="preserve" xmlns="http://www.w3.org/2000/svg" xmlns:xlink="http://www.w3.org/1999/xlink"><style type="text/css">
	.st0{fill:url(#Background_13_);}
	.st1{fill:url(#path-2_7_);}
	.st2{filter:url(#Adobe_OpacityMaskFilter);}
	.st3{fill:#FFFFFF;}
	.st4{mask:url(#mask-3_1_);fill:#FFFFFF;}
	.st5{fill:url(#SVGID_1_);}
	.st6{fill:#1E1E1F;}
	.st7{fill:url(#Oval_6_);}
	.st8{stroke:#000000;stroke-width:0.3;}
	.st9{fill:#2B2A2A;}
	.st10{fill:#FF9500;}
	.st11{fill:url(#Background_14_);}
	.st12{fill:url(#path-2_8_);}
	.st13{filter:url(#Adobe_OpacityMaskFilter_1_);}
	.st14{mask:url(#mask-3_2_);}
	.st15{fill:#FFFFFF;fill-opacity:0.7;}
	.st16{fill:url(#Background_15_);}
	.st17{fill:url(#Background_16_);}
	.st18{fill:url(#Background_17_);}
	.st19{filter:url(#Adobe_OpacityMaskFilter_2_);}
	.st20{mask:url(#mask-2_6_);fill-opacity:0.29;}
	.st21{filter:url(#Adobe_OpacityMaskFilter_3_);}
	.st22{mask:url(#mask-2_5_);}
	.st23{fill:url(#path-4_2_);}
	.st24{filter:url(#Adobe_OpacityMaskFilter_4_);}
	.st25{mask:url(#mask-2_4_);}
	.st26{fill:#AAAAAA;}
	.st27{fill:url(#Background_18_);}
	.st28{fill:#141416;}
	.st29{filter:url(#Adobe_OpacityMaskFilter_5_);}
	.st30{mask:url(#mask-2_3_);fill:url(#Chart_1_);stroke:#FFFFFF;stroke-width:0.75;}
	.st31{filter:url(#Adobe_OpacityMaskFilter_6_);}
	.st32{mask:url(#mask-2_2_);}
	.st33{fill:#01A6F1;}
	.st34{filter:url(#Adobe_OpacityMaskFilter_7_);}
	.st35{mask:url(#mask-2_1_);fill:#777778;}
	.st36{fill:url(#Background_19_);}
	.st37{fill:#2E2E30;}
	.st38{fill:#7F7F7F;}
	.st39{fill:#777777;}
	.st40{fill:none;}
	.st41{fill:url(#SVGID_2_);}
	.st42{fill:url(#Oval_7_);}
	.st43{filter:url(#Adobe_OpacityMaskFilter_8_);}
	.st44{mask:url(#mask-3_3_);fill:#FF1414;}
	.st45{filter:url(#Adobe_OpacityMaskFilter_9_);}
	.st46{mask:url(#mask-2_8_);}
	.st47{fill:#1BADF8;}
	.st48{fill:#63DA38;}
	.st49{filter:url(#Adobe_OpacityMaskFilter_10_);}
	.st50{mask:url(#mask-2_7_);}
	.st51{fill:#B7B7B7;}
	.st52{filter:url(#Adobe_OpacityMaskFilter_11_);}
	.st53{mask:url(#mask-2_24_);fill:url(#Red_1_);}
	.st54{filter:url(#Adobe_OpacityMaskFilter_12_);}
	.st55{mask:url(#mask-2_23_);fill:url(#Orange_1_);}
	.st56{filter:url(#Adobe_OpacityMaskFilter_13_);}
	.st57{mask:url(#mask-2_22_);fill:url(#Yellow_1_);}
	.st58{filter:url(#Adobe_OpacityMaskFilter_14_);}
	.st59{mask:url(#mask-2_21_);fill:url(#Green_1_);}
	.st60{filter:url(#Adobe_OpacityMaskFilter_15_);}
	.st61{mask:url(#mask-2_20_);fill:url(#Turquoise_1_);}
	.st62{filter:url(#Adobe_OpacityMaskFilter_16_);}
	.st63{mask:url(#mask-2_19_);fill:url(#Blue_1_);}
	.st64{filter:url(#Adobe_OpacityMaskFilter_17_);}
	.st65{mask:url(#mask-2_18_);fill:url(#Purple_1_);}
	.st66{filter:url(#Adobe_OpacityMaskFilter_18_);}
	.st67{mask:url(#mask-2_17_);fill:url(#Pink_1_);}
	.st68{fill:url(#Background_20_);}
	.st69{fill:#353535;}
	.st70{fill:url(#SVGID_3_);}
</style><g id="Graphics-_x2F_-App-Icons-_x2F_-WhatsApp"><g id="Icon_6_"><linearGradient gradientTransform="matrix(60 0 0 -60 -2993 37639)" gradientUnits="userSpaceOnUse" id="Background_13_" x1="50.7231" x2="50.7231" y1="627.2328" y2="625.7462"><stop offset="0" style="stop-color:#62FA7F"/><stop offset="0.6865" style="stop-color:#22CC40"/><stop offset="1" style="stop-color:#05B723"/></linearGradient><path class="st0" d="M28.4,5c-0.5,0-1.5,0-2.4,0c-2,0.1-4.6,0.2-5.7,0.5c-1.8,0.4-3.5,0.9-4.9,1.6    c-1.6,0.8-3.1,1.9-4.4,3.2c-1.3,1.3-2.3,2.7-3.2,4.4c-0.7,1.4-1.3,3.1-1.6,4.8c-0.2,1.2-0.4,3.8-0.5,5.8c0,0.8,0,1.9,0,2.4l0,43.9    c0,0.5,0,1.5,0,2.4c0.1,2,0.2,4.6,0.5,5.7c0.4,1.8,0.9,3.5,1.6,4.9c0.8,1.6,1.9,3.1,3.2,4.4c1.3,1.3,2.7,2.3,4.4,3.2    c1.4,0.7,3.1,1.3,4.8,1.6c1.2,0.2,3.8,0.4,5.8,0.5c0.8,0,1.9,0,2.4,0l43.9,0c0.5,0,1.5,0,2.4,0c2-0.1,4.6-0.2,5.7-0.5    c1.8-0.4,3.5-0.9,4.9-1.6c1.6-0.8,3.1-1.9,4.4-3.2c1.3-1.3,2.3-2.7,3.2-4.4c0.7-1.4,1.3-3.1,1.6-4.8c0.2-1.2,0.4-3.8,0.5-5.8    c0-0.8,0-1.9,0-2.4l0-43.9c0-0.5,0-1.5,0-2.4c-0.1-2-0.2-4.6-0.5-5.7c-0.4-1.8-0.9-3.5-1.6-4.9c-0.8-1.6-1.9-3.1-3.2-4.4    c-1.3-1.3-2.7-2.3-4.4-3.2c-1.4-0.7-3.1-1.3-4.8-1.6c-1.2-0.2-3.8-0.4-5.8-0.5c-0.8,0-1.9,0-2.4,0L28.4,5z" id="Background_7_"/><path class="st3" d="M66.6,54.4c-0.8-0.4-4.8-2.3-5.5-2.6c-0.7-0.3-1.3-0.4-1.8,0.4s-2.1,2.6-2.5,3.1    c-0.5,0.5-0.9,0.6-1.7,0.2c-0.8-0.4-3.4-1.2-6.5-3.9c-2.4-2.1-4-4.7-4.5-5.5c-0.5-0.8,0-1.2,0.4-1.6c0.4-0.4,0.8-0.9,1.2-1.4    c0.4-0.5,0.5-0.8,0.8-1.3c0.3-0.5,0.1-1-0.1-1.4c-0.2-0.4-1.8-4.3-2.5-5.9c-0.7-1.5-1.3-1.3-1.8-1.4c-0.5,0-1,0-1.5,0    c-0.5,0-1.4,0.2-2.1,1c-0.7,0.8-2.8,2.7-2.8,6.6c0,3.9,2.9,7.6,3.3,8.2c0.4,0.5,5.7,8.5,13.7,11.9c1.9,0.8,3.4,1.3,4.6,1.7    c1.9,0.6,3.7,0.5,5.1,0.3c1.5-0.2,4.8-1.9,5.4-3.7c0.7-1.8,0.7-3.4,0.5-3.7C67.9,55,67.4,54.8,66.6,54.4 M51.3,75L51.3,75    c-4.8,0-9.4-1.3-13.5-3.7l-1-0.6l-10,2.6l2.7-9.7l-0.6-1c-2.6-4.2-4-9-4-14c0-14.5,11.9-26.3,26.5-26.3C58.3,22.3,65,25,70,30    c5,5,7.7,11.6,7.7,18.6C77.7,63.1,65.8,75,51.3,75 M73.8,26.2c-6-6-14-9.3-22.5-9.3c-17.5,0-31.8,14.2-31.8,31.7    c0,5.6,1.5,11,4.2,15.8l-4.5,16.4L36,76.4c4.6,2.5,9.9,3.9,15.2,3.9h0h0c17.5,0,31.8-14.2,31.8-31.7    C83.1,40.2,79.8,32.2,73.8,26.2" id="WhatsApp-Icon"/></g></g></svg>